<svg width="15" height="15" viewBox="0 0 15 15" fill="none" xmlns="http://www.w3.org/2000/svg">
<path fill-rule="evenodd" clip-rule="evenodd" d="M11.1375 9.6913L14.7405 13.2951C15.0865 13.6412 15.0865 14.2024 14.7404 14.5485L14.5485 14.7404C14.2024 15.0865 13.6412 15.0865 13.2951 14.7405L9.6913 11.1375C8.68825 11.8518 7.46117 12.2719 6.13597 12.2719C2.74716 12.2719 0 9.52477 0 6.13597C0 2.74716 2.74716 0 6.13597 0C9.52477 0 12.2719 2.74716 12.2719 6.13597C12.2719 7.46117 11.8518 8.68825 11.1375 9.6913ZM6.13597 1.70443C3.6885 1.70443 1.70443 3.6885 1.70443 6.13597C1.70443 8.58343 3.6885 10.5675 6.13597 10.5675C8.58343 10.5675 10.5675 8.58343 10.5675 6.13597C10.5675 3.6885 8.58343 1.70443 6.13597 1.70443Z" fill="#242526"/>
</svg>
